<svg xmlns="http://www.w3.org/2000/svg" width="51" height="46" viewBox="0 0 51 46" fill="none"><path d="M15.481 32C15.481 31.5145 15.482 31.2006 15.5131 30.9694C15.5423 30.7525 15.5893 30.6845 15.6274 30.6464C15.6655 30.6084 15.7334 30.5613 15.9503 30.5322C16.1816 30.5011 16.4954 30.5 16.981 30.5H30.4777C30.3094 38.7068 23.6878 45.3284 15.481 45.4967V32Z" stroke="white"></path><path d="M50.2297 30.481H35.2376C35.4963 38.6439 42.0667 45.2144 50.2297 45.473V30.481Z" stroke="white"></path><path d="M35.2109 15.4331H50.203C49.9443 23.5961 43.3739 30.1665 35.2109 30.4252V15.4331Z" stroke="white"></path><path d="M15.5 45.481L0.507912 45.481C0.766602 37.318 7.33701 30.7476 15.5 30.4889L15.5 45.481Z" stroke="white"></path><path d="M30.481 15.5H15.4889C15.7476 23.663 22.318 30.2334 30.481 30.4921V15.5Z" stroke="white"></path><path d="M15.481 15.5H30.473C30.2144 7.33701 23.6439 0.766603 15.481 0.507912V15.5Z" stroke="white"></path></svg>