<svg xmlns="http://www.w3.org/2000/svg" width="16" height="16" viewBox="0 0 16 16" fill="none"><path fill-rule="evenodd" clip-rule="evenodd" d="M13.7838 2.42266C13.6252 4.49479 13.6121 14.117 14.6615 15.8385C14.7012 15.9037 14.7422 15.9578 14.7843 16C14.8258 15.9585 14.8659 15.9037 14.9049 15.8363C15.9929 13.9545 16.1245 2.31683 15.9185 0.0534964C13.9114 -0.176305 1.99038 0.352972 0.171124 1.28178C0.0967379 1.31976 0.0392408 1.3584 0 1.39769C0.0403872 1.43813 0.0974283 1.47725 0.169806 1.5151C1.81877 2.37736 11.6029 2.35519 13.5573 2.19983C13.6389 2.19334 13.7625 2.17048 13.8163 2.16279C13.8092 2.21958 13.7899 2.34353 13.7838 2.42266ZM0.398564 1.39932C0.520527 1.44778 0.675426 1.49553 0.86148 1.54192C1.25495 1.64002 1.77075 1.72793 2.37305 1.80564C3.57663 1.96093 5.10648 2.07313 6.65261 2.14804C8.198 2.2229 9.75595 2.26034 11.0143 2.26658C12.2801 2.27285 13.2253 2.24731 13.5573 2.19983L13.8163 2.16279L13.7838 2.42266C13.6865 3.20232 13.6851 6.28568 13.86 9.33748C13.9472 10.86 14.0779 12.3657 14.2607 13.5631C14.3522 14.1623 14.456 14.6794 14.5723 15.0808C14.6417 15.3202 14.7123 15.5064 14.781 15.6421C14.7915 15.6199 14.8023 15.5961 14.8131 15.5705C14.8748 15.4256 14.9348 15.24 14.9925 15.0163C15.108 14.5691 15.21 13.9861 15.2992 13.3057C15.4773 11.9458 15.7032 9.3681 15.7833 7.59866C15.9366 4.21066 16.0117 1.36572 15.9185 0.0534964C15.3472 0.00949184 14.057 0.064246 12.6865 0.0974763C11.1772 0.134073 9.35784 0.340136 7.56377 0.460416C5.76908 0.580738 4.01166 0.739553 2.64243 0.930202C1.9573 1.0256 1.37375 1.12838 0.932938 1.23718C0.714803 1.29102 0.535806 1.34533 0.398564 1.39932Z" fill="white"></path><path fill-rule="evenodd" clip-rule="evenodd" d="M13.7951 2.18374L0.368301 15.91L0.0856305 15.6269L13.7951 2.18374Z" fill="white"></path></svg>