<svg xmlns="http://www.w3.org/2000/svg" width="341" height="341" viewBox="0 0 341 341" fill="none"><path d="M148.345 320.562L147.352 320.409C147.03 321.401 146.411 322.444 145.469 323.535C143.589 325.692 140.181 327.565 137.474 327.706L137.321 328.7C138.577 329.184 139.763 329.972 140.858 331.037C143.091 333.198 144.527 336.132 144.562 338.585L145.555 338.737C145.984 337.52 146.713 336.396 147.753 335.297C149.805 333.117 152.705 331.723 155.474 331.495L155.626 330.501C154.322 330.01 153.053 329.136 151.862 327.911C149.436 325.43 148.387 322.652 148.345 320.562Z" fill="white"></path><path d="M102.906 325.764C103.392 324.229 102.058 321.775 105.066 318.856L108.98 315.071L109.061 328.343L112.723 329.878L112.54 311.138L112.452 311.101L104.755 318.544C102.077 321.108 100.726 322.358 98.6708 323.989L102.906 325.764Z" fill="white"></path><path d="M95.6708 303.437L87.6087 318.099L90.7924 319.856L98.8545 305.194L95.6708 303.437Z" fill="white"></path><path d="M77.6325 303.787L78.3123 304.83C79.2789 306.387 80.3103 308.104 79.2475 309.668C78.4268 310.876 76.8109 311.338 75.1307 310.193C73.4506 309.047 73.81 306.135 73.639 304.598L71.3446 306.655C71.7089 307.396 72.9325 309.128 74.6917 310.328C77.5776 312.295 80.5926 311.86 82.1532 309.563C83.8617 307.049 82.387 304.537 81.4662 303.041L80.7865 301.998C79.8657 300.501 78.6501 298.629 79.8071 296.927C80.7219 295.581 82.4304 295.152 84.2291 296.379C85.8698 297.497 86.2126 300.483 86.1675 302.422L88.6414 300.314C88.2898 299.64 86.5199 297.477 84.6816 296.224C81.4794 294.04 78.4144 294.847 76.8942 297.084C75.1588 299.638 76.5482 302.063 77.6325 303.787Z" fill="white"></path><path d="M57.0754 296.086C57.9568 294.411 57.4429 290.984 59.5425 288.56L61.83 285.919C64.2586 283.115 66.6714 282.961 68.658 284.688C70.6989 286.461 70.7314 288.836 68.2872 291.657L61.2835 299.743L64.0287 302.129L71.001 294.079C73.6333 291.04 73.6156 287.918 70.2563 284.998C66.9512 282.126 64.0878 282.618 61.4242 285.693L59.1993 288.262C57.0998 290.686 55.4102 292.198 53.8787 293.308L57.0754 296.086Z" fill="white"></path><path d="M43.8805 283.38L43.9442 283.452L54.0911 280.052C57.6103 278.892 59.368 278.346 61.9078 277.742L58.689 274.136C57.7864 275.137 58.3919 277.935 55.7777 278.959L51.9374 274.656L54.4025 269.333L51.7573 266.369L43.8805 283.38ZM55.3453 279.121C54.9289 279.302 54.4468 279.444 53.9468 279.603L48.8031 281.35L51.7281 275.068L55.3453 279.121Z" fill="white"></path><path d="M39.0131 256.042C41.9443 256.875 44.687 257.284 45.485 258.39L45.6809 258.662L32.4611 268.226L34.5889 271.177L48.1382 261.375L42.9308 254.153L38.9851 256.003L39.0131 256.042Z" fill="white"></path><path d="M16.6047 240.578L19.1351 246.291L34.4138 239.501L32.1646 234.423C29.5954 228.623 25.222 226.427 20.304 228.613C15.3422 230.818 14.3651 235.522 16.6047 240.578ZM31.5555 233.934C32.1566 235.291 32.3528 235.911 32.4156 236.407L18.0112 242.809L17.0223 240.576C15.5874 237.336 17.651 234.14 21.9789 232.217C26.6784 230.129 30.111 230.673 31.5555 233.934Z" fill="white"></path><path d="M19.2348 207.707C21.1391 209.329 23.2108 211.103 23.7485 212.991L24.037 214.004L16.2643 216.225L16.1004 215.649C15.4184 213.254 15.3503 211.531 15.7284 210.85L15.7153 210.804L13.5996 211.408L13.6128 211.455C14.2695 211.84 15.0275 213.366 15.7094 215.761L15.8734 216.336L8.74454 218.373L8.48225 217.452C7.95109 215.587 8.84256 213.042 9.45134 210.9L9.43823 210.854L6.52408 212.061L9.35034 221.985L25.4247 217.392L22.5394 207.261L19.2217 207.661L19.2348 207.707Z" fill="white"></path><path d="M9.92966 194.293L9.64139 195.505C9.17773 197.278 8.64262 199.209 6.77782 199.512C5.33792 199.746 3.8909 198.89 3.56536 196.881C3.23983 194.872 5.5983 193.13 6.5941 191.949L3.52474 191.696C3.23835 192.47 2.82447 194.551 3.16533 196.655C3.72449 200.105 6.11453 201.997 8.85271 201.552C11.8505 201.064 12.6567 198.265 13.1083 196.566L13.3965 195.355C13.8481 193.656 14.3685 191.486 16.3985 191.156C18.0037 190.895 19.4896 191.842 19.8381 193.992C20.156 195.954 18.2276 198.257 16.791 199.558L20.0211 199.906C20.2679 199.187 20.6179 196.413 20.2618 194.215C19.6413 190.386 16.9476 188.713 14.2803 189.147C11.2352 189.642 10.4335 192.319 9.92966 194.293Z" fill="white"></path><path d="M18.3039 178.687L1.62507 179.803L1.86724 183.434L18.5461 182.319L18.3039 178.687Z" fill="white"></path><path d="M10.69 161.771L11.1284 161.546L11.2407 158.244L17.4786 158.456C17.9306 159.238 18.1727 160.564 18.136 161.641C18.0197 165.063 14.5551 167.03 9.7033 166.864C4.70814 166.694 1.5353 165.004 1.65002 161.63C1.73709 159.07 4.73439 158.884 6.65099 158.111L4.19374 155.081C2.73643 156.42 1.3916 158.675 1.2964 161.474C1.11902 166.691 4.35797 170.659 9.71163 170.842C15.1848 171.028 18.3677 167.495 18.563 161.752C18.6557 159.024 17.9609 156.939 16.8492 155.153L10.9219 154.951L10.69 161.771Z" fill="white"></path><path d="M3.98105 140.329C5.87138 140.175 8.54562 137.723 11.7088 138.237L15.6981 138.885L3.1393 145.529L2.44676 149.807L2.51758 149.819L4.77276 148.608L11.9961 149.781C15.1592 150.295 17.3322 150.939 19.081 151.66L19.7735 147.382C17.887 147.512 15.2319 149.846 12.0688 149.332L5.41199 148.251L21.3194 139.628L21.3654 139.344L11.7815 137.788C8.61831 137.274 6.4453 136.63 4.69654 135.909L3.98105 140.329Z" fill="white"></path><path d="M22.7634 120.5C23.5038 122.892 24.3047 125.501 23.7489 127.384L23.4507 128.394L15.6996 126.099L15.869 125.525C16.5739 123.137 17.4382 121.645 18.1215 121.273L18.1351 121.227L16.0253 120.602L16.0117 120.648C16.3604 121.326 16.184 123.021 15.4792 125.41L15.3097 125.984L8.20075 123.878L8.47186 122.96C9.02084 121.1 11.135 119.429 12.7941 117.948L12.8076 117.902L9.70185 117.356L6.78071 127.253L22.8103 132L25.7925 121.897L22.7769 120.454L22.7634 120.5Z" fill="white"></path><path d="M24.3963 103.066C24.6058 100.713 23.9408 98.5888 21.9127 97.7349C19.3335 96.649 17.1506 98.3274 15.3071 102.72L13.2784 107.555L28.6874 114.042L30.0955 110.687L23.0634 107.726L23.3505 107.042C23.5265 106.623 23.5265 106.623 23.6968 106.279L31.8927 106.405L33.5231 102.519L24.3963 103.066ZM23.1885 105.883C23.031 106.258 22.6442 107.056 22.402 107.448L15.0392 104.348L15.595 103.023C16.5955 100.639 18.5008 100.117 20.7273 101.054C22.9318 101.982 24.0222 103.896 23.1885 105.883Z" fill="white"></path><path d="M47.2053 82.0183L47.7904 81.201C47.0524 80.4646 46.4038 79.4389 45.8587 78.1043C44.7877 75.4492 44.6613 71.557 45.7608 69.0758L44.9447 68.4896C43.9453 69.3925 42.7071 70.0944 41.2637 70.59C38.3295 71.6061 35.0665 71.5609 32.867 70.4821L32.2819 71.2995C33.1724 72.2338 33.843 73.3932 34.3519 74.8196C35.3641 77.6388 35.2944 80.8598 34.2447 83.4357L35.0608 84.0219C36.0882 83.0801 37.4403 82.3421 39.07 81.833C42.3767 80.7898 45.3252 81.11 47.2053 82.0183Z" fill="white"></path><path d="M60.4875 41.328L56.1111 45.0828L66.9828 57.7964L69.7431 55.4283L65.1704 50.0809C65.6166 49.7927 66.3351 49.2708 66.8799 48.8034C69.9307 46.186 70.4765 43.0691 68.439 40.6864C66.526 38.4492 63.7562 38.5237 60.4875 41.328ZM66.0474 49.0447C65.6297 49.4031 65.2562 49.6289 64.906 49.7717L59.1202 43.0056L60.1553 42.1176C62.0075 40.5285 64.0119 41.3629 65.7383 43.3818C67.558 45.5099 67.827 47.5179 66.0474 49.0447Z" fill="white"></path><path d="M84.8474 33.7753C86.3076 31.9191 86.9105 29.7763 85.6784 27.9512C84.1116 25.6302 81.3674 25.841 77.4256 28.5108L73.0877 31.4489L82.4486 45.3154L85.4594 43.2762L81.1874 36.948L81.8015 36.5321C82.1778 36.2772 82.1778 36.2772 82.5081 36.0824L89.3022 40.6736L92.7884 38.3124L84.8474 33.7753ZM82.2986 35.4727C81.9619 35.7008 81.2022 36.1575 80.7857 36.3529L76.3128 29.7271L77.5013 28.9221C79.6405 27.4732 81.5212 28.0784 82.8738 30.0821C84.213 32.0658 84.0813 34.2653 82.2986 35.4727Z" fill="white"></path><path d="M103.173 18.5623C98.7041 15.5227 94.0438 16.9316 91.2588 21.0608C88.3383 25.3958 88.9598 30.4729 93.4499 33.5014C97.9189 36.5409 102.6 35.121 105.375 31.0241C108.317 26.678 107.663 21.5908 103.173 18.5623ZM105.208 30.5986C103.414 33.2646 99.6208 32.8697 95.4874 30.0599C91.4294 27.2917 89.5689 24.1856 91.4468 21.4217C93.2306 18.788 97.0234 19.1829 101.157 21.9926C105.247 24.771 107.064 27.8458 105.208 30.5986Z" fill="white"></path><path d="M112.917 10.622L107.056 12.7709L112.8 28.4889L118.01 26.5788C123.961 24.397 126.441 20.1729 124.592 15.1134C122.727 10.009 118.105 8.72014 112.917 10.622ZM118.538 26.0027C117.146 26.5132 116.515 26.668 116.016 26.6977L110.601 11.8792L112.892 11.0394C116.215 9.82091 119.262 12.0953 120.889 16.5476C122.656 21.3822 121.884 24.776 118.538 26.0027Z" fill="white"></path><path d="M136.704 3.83554C137.533 5.53731 140.597 7.14606 141.309 10.2744L142.085 13.6828C142.909 17.3014 141.607 19.3424 139.043 19.9281C136.408 20.5298 134.476 19.1537 133.647 15.5117L131.272 5.07624L127.728 5.88562L130.093 16.2744C130.985 20.1965 133.511 22.0264 137.848 21.036C142.115 20.0616 143.41 17.457 142.507 13.4883L141.752 10.1732C141.04 7.04489 140.82 4.7865 140.831 2.89303L136.704 3.83554Z" fill="white"></path><path d="M163.738 13.1404C162.51 15.4354 160.481 16.2733 158.84 16.4449C155.582 16.7854 152.98 14.4332 152.432 9.17003C151.998 5.00238 153.092 1.42135 156.16 1.10068C158.3 0.876947 159.007 3.74014 160.115 5.59852L162.703 2.75199C161.28 1.55258 158.882 0.455087 156.194 0.73599C151.247 1.25305 148.005 4.98636 148.568 10.3924C149.089 15.3936 152.729 18.4799 157.414 17.9902C160.506 17.667 162.795 15.863 164.017 13.2797L163.738 13.1404Z" fill="white"></path><path d="M179.462 0.414488L167.099 0.374258L166.75 4.51552L166.774 4.5156C168.621 2.98916 169.728 0.78987 171.115 0.794384L171.45 0.795473L171.397 17.1255L175.056 17.1374L175.109 0.807378L175.467 0.808546C176.854 0.813059 177.923 3.01943 179.76 4.55785L179.808 4.55801L179.462 0.414488Z" fill="white"></path><path d="M206.404 4.14843L200.315 2.77844L196.653 19.109L202.066 20.3268C208.249 21.7178 212.617 19.51 213.795 14.2533C214.984 8.94998 211.794 5.36094 206.404 4.14843ZM202.821 20.1286C201.375 19.8032 200.76 19.5913 200.325 19.3462L203.777 3.95009L206.157 4.48549C209.61 5.26234 210.944 8.82626 209.906 13.4521C208.78 18.4751 206.298 20.9107 202.821 20.1286Z" fill="white"></path><path d="M231.192 25.8521C228.756 26.4163 226.099 27.0249 224.264 26.3318L223.28 25.9599L226.131 18.387L226.69 18.5983C229.017 19.4773 230.44 20.4498 230.761 21.1595L230.805 21.1764L231.581 19.1152L231.537 19.0983C230.837 19.3968 229.161 19.0964 226.834 18.2174L226.274 18.0061L228.889 11.0605L229.784 11.3986C231.597 12.0832 233.107 14.3171 234.461 16.0827L234.506 16.0996L235.275 13.0377L225.632 9.3949L219.735 25.0561L229.58 28.775L231.237 25.869L231.192 25.8521Z" fill="white"></path><path d="M247.489 26.364L246.689 25.4103C245.543 23.9803 244.314 22.3993 245.182 20.7192C245.852 19.422 247.401 18.769 249.206 19.7048C251.011 20.6405 251.003 23.5751 251.356 25.0796L253.388 22.7625C252.938 22.0707 251.516 20.4977 249.626 19.5179C246.525 17.9105 243.584 18.7046 242.31 21.1715C240.914 23.8724 242.679 26.1893 243.772 27.5649L244.571 28.5187C245.664 29.8943 247.095 31.6067 246.15 33.4357C245.403 34.8818 243.758 35.512 241.825 34.5102C240.063 33.5964 239.365 30.6733 239.178 28.7428L236.974 31.1324C237.404 31.7596 239.42 33.6945 241.395 34.7183C244.835 36.5018 247.782 35.333 249.023 32.9298C250.441 30.1864 248.771 27.9458 247.489 26.364Z" fill="white"></path><path d="M255.01 42.3986L264.053 28.3225L260.997 26.3524L251.953 40.4285L255.01 42.3986Z" fill="white"></path><path d="M273.108 46.3592L273.027 46.8455L275.608 48.9045L271.721 53.7939C270.824 53.6911 269.617 53.0953 268.775 52.4239C266.101 50.2903 266.588 46.3321 269.612 42.5293C272.725 38.6141 275.97 37.0699 278.607 39.1736C280.609 40.77 278.971 43.2907 278.449 45.2928L282.344 45.1236C282.137 43.153 281.131 40.7278 278.943 38.9821C274.865 35.7295 269.754 35.9688 266.418 40.165C263.007 44.4549 263.943 49.1206 268.432 52.7014C270.565 54.4023 272.65 55.0859 274.745 55.2572L278.439 50.6114L273.108 46.3592Z" fill="white"></path><path d="M294.294 53.7439C293.291 55.3559 293.664 58.9684 291.367 61.206L288.471 64.028L290.626 49.9671L287.609 46.8599L287.557 46.91L287.184 49.4452L281.94 54.5549C279.643 56.7925 277.832 58.1561 276.212 59.1329L279.229 62.2402C280.249 60.6454 279.96 57.1187 282.256 54.8811L287.09 50.1721L284.525 68.1057L284.725 68.3117L291.684 61.5322C293.98 59.2946 295.792 57.931 297.411 56.9542L294.294 53.7439Z" fill="white"></path><path d="M298.997 80.6675C296.638 79.8374 294.069 78.9261 292.891 77.3567L292.259 76.5146L298.718 71.6488L299.077 72.1273C300.571 74.1178 301.252 75.7022 301.143 76.4735L301.172 76.5118L302.93 75.1874L302.901 75.1491C302.151 75.0256 300.896 73.873 299.402 71.8826L299.042 71.4041L304.966 66.9414L305.541 67.707C306.705 69.2572 306.785 71.9537 306.984 74.1711L307.013 74.2094L309.301 72.0364L303.107 63.7876L289.749 73.8502L296.072 82.2713L299.026 80.7058L298.997 80.6675Z" fill="white"></path><path d="M311.998 92.3715C313.76 93.9427 315.859 94.674 317.753 93.5517C320.16 92.1245 320.116 89.3684 317.693 85.2674L315.026 80.7542L300.642 89.2808L302.493 92.4133L309.057 88.522L309.434 89.1608C309.666 89.5524 309.666 89.5524 309.84 89.8943L304.855 96.4113L306.998 100.038L311.998 92.3715ZM310.46 89.7214C310.253 89.3711 309.844 88.5842 309.674 88.156L316.547 84.0818L317.278 85.3183C318.593 87.544 317.876 89.3879 315.798 90.6199C313.74 91.8398 311.556 91.5762 310.46 89.7214Z" fill="white"></path><path d="M315.276 123.261L315.582 124.219C316.612 124.064 317.821 124.153 319.216 124.51C321.983 125.231 325.179 127.449 326.513 129.812L327.469 129.505C327.341 128.163 327.516 126.749 327.979 125.292C328.914 122.327 330.895 119.729 333.071 118.603L332.764 117.646C331.485 117.805 330.155 117.654 328.709 117.213C325.845 116.347 323.304 114.372 321.865 111.992L320.908 112.299C321.051 113.687 320.837 115.214 320.273 116.828C319.139 120.109 317.125 122.29 315.276 123.261Z" fill="white"></path><path d="M340.202 161.496C338.394 162.048 336.326 164.826 333.128 165.039L329.644 165.272C325.946 165.519 324.137 163.912 323.963 161.283C323.783 158.584 325.444 156.889 329.166 156.641L339.832 155.929L339.591 152.297L328.972 153.006C324.964 153.273 322.762 155.484 323.058 159.928C323.348 164.3 325.714 165.99 329.77 165.719L333.158 165.493C336.356 165.28 338.618 165.417 340.484 165.724L340.202 161.496Z" fill="white"></path><path d="M323.493 178.116L340.195 178.798L340.343 175.161L323.641 174.48L323.493 178.116Z" fill="white"></path><path d="M340.131 195.014L321.73 185.874L321.659 186.421L340.057 195.584L340.131 195.014Z" fill="white"></path><path d="M334.696 213.959C332.806 213.929 329.986 215.937 326.878 215.158L323.491 214.308C319.895 213.406 318.666 211.321 319.305 208.766C319.961 206.141 322.061 205.039 325.68 205.946L336.049 208.547L336.932 205.017L326.609 202.427C322.712 201.45 319.939 202.877 318.859 207.197C317.796 211.448 319.53 213.784 323.473 214.773L326.767 215.599C329.876 216.379 331.987 217.204 333.668 218.071L334.696 213.959Z" fill="white"></path><path d="M321.622 232.923L321.766 233.138C323.656 236.147 324.716 238.347 325.437 240.174L327.18 235.947C325.962 235.262 323.975 235.813 322.146 232.906L322.072 232.772L329.397 230.568L331.14 226.341L320.576 229.563L319.222 227.448C317.271 224.336 316.265 222.132 315.598 220.173L313.308 225.728C314.623 226.116 316.952 224.67 318.873 227.667L320.125 229.713L310.412 232.691L308.706 236.83L321.622 232.923Z" fill="white"></path><path d="M308.003 270.045L311.722 265.026L298.301 255.048L294.995 259.509C291.219 264.605 291.464 269.499 295.784 272.711C300.142 275.951 304.711 274.487 308.003 270.045ZM294.87 260.281C295.753 259.089 296.195 258.613 296.596 258.314L309.249 267.72L307.795 269.682C305.686 272.528 301.893 272.302 298.091 269.476C293.963 266.407 292.747 263.146 294.87 260.281Z" fill="white"></path><path d="M278.143 283.937C278.616 281.478 279.137 278.798 280.514 277.4L281.252 276.649L287.008 282.332L286.588 282.758C284.843 284.532 283.378 285.44 282.6 285.446L282.567 285.48L284.133 287.026L284.167 286.992C284.178 286.23 285.132 284.818 286.878 283.044L287.297 282.617L292.576 287.829L291.904 288.511C290.545 289.893 287.894 290.369 285.734 290.893L285.7 290.927L288.182 292.874L295.417 285.523L283.514 273.771L276.129 281.275L278.109 283.971L278.143 283.937Z" fill="white"></path><path d="M271.067 298.652L272.262 298.307C274.031 297.838 275.973 297.354 277.154 298.83C278.066 299.97 278.034 301.653 276.448 302.926C274.862 304.199 272.187 303.001 270.671 302.715L271.962 305.515C272.776 305.383 274.788 304.719 276.448 303.386C279.172 301.199 279.64 298.184 277.906 296.017C276.007 293.643 273.177 294.319 271.479 294.762L270.284 295.107C268.585 295.55 266.442 296.166 265.157 294.559C264.14 293.288 264.232 291.526 265.93 290.163C267.478 288.92 270.428 289.467 272.266 290.079L270.979 287.092C270.232 287.231 267.649 288.292 265.914 289.685C262.892 292.111 262.764 295.283 264.453 297.394C266.382 299.805 269.104 299.185 271.067 298.652Z" fill="white"></path><path d="M253.384 299.036L262.562 313.025L265.6 311.026L256.422 297.037L253.384 299.036Z" fill="white"></path><path d="M242.43 314.002L242.019 313.73L239.093 315.259L236.208 309.717C236.665 308.938 237.699 308.074 238.653 307.576C241.685 305.992 245.099 308.043 247.343 312.354C249.653 316.791 249.746 320.389 246.757 321.95C244.488 323.135 242.852 320.614 241.237 319.324L239.812 322.958C241.694 323.569 244.315 323.631 246.796 322.335C251.418 319.921 253.273 315.144 250.796 310.388C248.265 305.526 243.627 304.491 238.539 307.149C236.122 308.412 234.652 310.044 233.646 311.892L236.387 317.158L242.43 314.002Z" fill="white"></path><path d="M227.098 330.404C226.034 328.832 222.586 327.709 221.475 324.699L220.075 320.903L232.033 328.577L236.093 327.074L236.068 327.007L233.906 325.638L231.37 318.765C230.259 315.755 229.75 313.544 229.515 311.665L225.455 313.168C226.497 314.748 229.833 315.913 230.944 318.922L233.28 325.256L217.954 315.638L217.685 315.738L221.049 324.857C222.159 327.867 222.669 330.078 222.904 331.956L227.098 330.404Z" fill="white"></path><path d="M200.62 323.794C202.335 321.972 204.209 319.989 206.119 319.547L207.144 319.309L208.965 327.195L208.382 327.329C205.959 327.891 204.237 327.872 203.577 327.46L203.531 327.47L204.026 329.617L204.073 329.606C204.49 328.968 206.051 328.287 208.474 327.726L209.057 327.591L210.726 334.823L209.794 335.039C207.907 335.476 205.414 334.456 203.309 333.74L203.262 333.75L204.318 336.726L214.359 334.399L210.594 318.092L200.343 320.467L200.574 323.805L200.62 323.794Z" fill="white"></path><path d="M184.667 330.951C182.518 331.927 180.998 333.552 181.255 335.74C181.581 338.522 184.115 339.598 188.841 339.043L194.042 338.432L192.095 321.808L188.485 322.233L189.374 329.819L188.637 329.906C188.186 329.959 188.186 329.959 187.803 329.98L183.877 322.774L179.697 323.266L184.667 330.951ZM187.709 330.617C188.113 330.57 188.998 330.514 189.457 330.532L190.388 338.475L188.963 338.643C186.398 338.944 185.005 337.541 184.724 335.139C184.445 332.761 185.572 330.869 187.709 330.617Z" fill="white"></path></svg>